<mxfile host="app.diagrams.net" modified="2022-11-01T12:37:45.103Z" agent="5.0 (Windows NT 10.0; Win64; x64) AppleWebKit/537.36 (KHTML, like Gecko) Chrome/103.0.0.0 Safari/537.36" etag="H6Bx4RKxJL-SaP-A0HHP" version="20.5.1" type="github">
  <diagram id="QyvoJ7iB64qHbw9t7cfs" name="第 1 页">
    <mxGraphModel dx="1209" dy="740" grid="1" gridSize="10" guides="1" tooltips="1" connect="1" arrows="1" fold="1" page="1" pageScale="1" pageWidth="827" pageHeight="1169" math="0" shadow="0">
      <root>
        <mxCell id="0" />
        <mxCell id="1" parent="0" />
        <mxCell id="oOV4uAgmonsFJPLMSGPg-2" style="edgeStyle=orthogonalEdgeStyle;rounded=0;orthogonalLoop=1;jettySize=auto;html=1;exitX=0.5;exitY=1;exitDx=0;exitDy=0;entryX=0.5;entryY=0;entryDx=0;entryDy=0;fontFamily=Times New Roman;fontSize=16;" edge="1" parent="1" source="oOV4uAgmonsFJPLMSGPg-5" target="oOV4uAgmonsFJPLMSGPg-9">
          <mxGeometry relative="1" as="geometry" />
        </mxCell>
        <mxCell id="oOV4uAgmonsFJPLMSGPg-3" style="edgeStyle=orthogonalEdgeStyle;rounded=0;orthogonalLoop=1;jettySize=auto;html=1;fontFamily=Times New Roman;fontSize=16;" edge="1" parent="1" source="oOV4uAgmonsFJPLMSGPg-5" target="oOV4uAgmonsFJPLMSGPg-13">
          <mxGeometry relative="1" as="geometry" />
        </mxCell>
        <mxCell id="oOV4uAgmonsFJPLMSGPg-4" style="edgeStyle=orthogonalEdgeStyle;rounded=0;orthogonalLoop=1;jettySize=auto;html=1;entryX=0.5;entryY=0;entryDx=0;entryDy=0;fontFamily=Times New Roman;fontSize=16;" edge="1" parent="1" source="oOV4uAgmonsFJPLMSGPg-5" target="oOV4uAgmonsFJPLMSGPg-7">
          <mxGeometry relative="1" as="geometry" />
        </mxCell>
        <mxCell id="oOV4uAgmonsFJPLMSGPg-5" value="游戏大厅界面功能框架图" style="rounded=1;whiteSpace=wrap;html=1;fontFamily=Times New Roman;fontSize=32;" vertex="1" parent="1">
          <mxGeometry x="260.5" y="250" width="389.5" height="70" as="geometry" />
        </mxCell>
        <mxCell id="oOV4uAgmonsFJPLMSGPg-6" style="edgeStyle=orthogonalEdgeStyle;rounded=0;orthogonalLoop=1;jettySize=auto;html=1;fontFamily=Times New Roman;fontSize=16;" edge="1" parent="1" source="oOV4uAgmonsFJPLMSGPg-7" target="oOV4uAgmonsFJPLMSGPg-14">
          <mxGeometry relative="1" as="geometry" />
        </mxCell>
        <mxCell id="oOV4uAgmonsFJPLMSGPg-7" value="&lt;span style=&quot;font-size: 18px;&quot;&gt;载入&lt;/span&gt;" style="rounded=1;whiteSpace=wrap;html=1;fontFamily=Times New Roman;fontSize=16;dashed=1;" vertex="1" parent="1">
          <mxGeometry x="258.5" y="386" width="70" height="40" as="geometry" />
        </mxCell>
        <mxCell id="oOV4uAgmonsFJPLMSGPg-8" style="edgeStyle=orthogonalEdgeStyle;rounded=0;orthogonalLoop=1;jettySize=auto;html=1;exitX=0.5;exitY=1;exitDx=0;exitDy=0;fontFamily=Times New Roman;fontSize=18;" edge="1" parent="1" source="oOV4uAgmonsFJPLMSGPg-9" target="oOV4uAgmonsFJPLMSGPg-15">
          <mxGeometry relative="1" as="geometry" />
        </mxCell>
        <mxCell id="oOV4uAgmonsFJPLMSGPg-9" value="&lt;span style=&quot;font-size: 18px;&quot;&gt;开始游戏&lt;/span&gt;" style="rounded=1;whiteSpace=wrap;html=1;fontFamily=Times New Roman;fontSize=16;" vertex="1" parent="1">
          <mxGeometry x="370.5" y="386" width="88.5" height="40" as="geometry" />
        </mxCell>
        <mxCell id="oOV4uAgmonsFJPLMSGPg-11" style="edgeStyle=orthogonalEdgeStyle;rounded=0;orthogonalLoop=1;jettySize=auto;html=1;entryX=0.5;entryY=0;entryDx=0;entryDy=0;fontFamily=Times New Roman;fontSize=18;" edge="1" parent="1" source="oOV4uAgmonsFJPLMSGPg-13" target="oOV4uAgmonsFJPLMSGPg-17">
          <mxGeometry relative="1" as="geometry" />
        </mxCell>
        <mxCell id="oOV4uAgmonsFJPLMSGPg-28" style="edgeStyle=orthogonalEdgeStyle;rounded=0;orthogonalLoop=1;jettySize=auto;html=1;exitX=0.5;exitY=1;exitDx=0;exitDy=0;entryX=0.5;entryY=0;entryDx=0;entryDy=0;" edge="1" parent="1" source="oOV4uAgmonsFJPLMSGPg-13" target="oOV4uAgmonsFJPLMSGPg-27">
          <mxGeometry relative="1" as="geometry" />
        </mxCell>
        <mxCell id="oOV4uAgmonsFJPLMSGPg-29" style="edgeStyle=orthogonalEdgeStyle;rounded=0;orthogonalLoop=1;jettySize=auto;html=1;exitX=0.5;exitY=1;exitDx=0;exitDy=0;entryX=0.5;entryY=0;entryDx=0;entryDy=0;" edge="1" parent="1" source="oOV4uAgmonsFJPLMSGPg-13" target="oOV4uAgmonsFJPLMSGPg-16">
          <mxGeometry relative="1" as="geometry" />
        </mxCell>
        <mxCell id="oOV4uAgmonsFJPLMSGPg-13" value="&lt;font style=&quot;font-size: 18px;&quot;&gt;排行榜刷新&lt;/font&gt;" style="rounded=1;whiteSpace=wrap;html=1;fontFamily=Times New Roman;fontSize=16;" vertex="1" parent="1">
          <mxGeometry x="532.5" y="386" width="68.5" height="50" as="geometry" />
        </mxCell>
        <mxCell id="oOV4uAgmonsFJPLMSGPg-14" value="&lt;font style=&quot;font-size: 14px;&quot;&gt;所有英雄&lt;br&gt;数据载入&lt;/font&gt;" style="rounded=1;whiteSpace=wrap;html=1;fontFamily=Times New Roman;fontSize=16;dashed=1;" vertex="1" parent="1">
          <mxGeometry x="256" y="466" width="75" height="60" as="geometry" />
        </mxCell>
        <mxCell id="oOV4uAgmonsFJPLMSGPg-15" value="&lt;span style=&quot;font-size: 14px;&quot;&gt;跳转至&lt;br&gt;游戏界面&lt;/span&gt;" style="rounded=1;whiteSpace=wrap;html=1;fontFamily=Times New Roman;fontSize=16;" vertex="1" parent="1">
          <mxGeometry x="377.25" y="466" width="75" height="60" as="geometry" />
        </mxCell>
        <mxCell id="oOV4uAgmonsFJPLMSGPg-16" value="&lt;span style=&quot;font-size: 14px;&quot;&gt;用户&lt;br&gt;排行&lt;br&gt;&lt;/span&gt;" style="rounded=1;whiteSpace=wrap;html=1;fontFamily=Times New Roman;fontSize=16;dashed=1;" vertex="1" parent="1">
          <mxGeometry x="480" y="478" width="50" height="50" as="geometry" />
        </mxCell>
        <mxCell id="oOV4uAgmonsFJPLMSGPg-17" value="&lt;span style=&quot;font-size: 14px;&quot;&gt;英雄&lt;br&gt;排行&lt;/span&gt;" style="rounded=1;whiteSpace=wrap;html=1;fontFamily=Times New Roman;fontSize=16;dashed=1;" vertex="1" parent="1">
          <mxGeometry x="550" y="478" width="50" height="50" as="geometry" />
        </mxCell>
        <mxCell id="oOV4uAgmonsFJPLMSGPg-27" value="&lt;span style=&quot;font-size: 14px;&quot;&gt;更新&lt;br&gt;排行榜&lt;/span&gt;" style="rounded=1;whiteSpace=wrap;html=1;fontFamily=Times New Roman;fontSize=16;" vertex="1" parent="1">
          <mxGeometry x="620" y="478" width="60" height="50" as="geometry" />
        </mxCell>
      </root>
    </mxGraphModel>
  </diagram>
</mxfile>
